<svg width="32" height="31" viewBox="0 0 32 31" fill="none" xmlns="http://www.w3.org/2000/svg">
<path d="M30.6177 10.6256L21.2478 9.25502L17.0592 0.708175C16.9448 0.474167 16.7566 0.284733 16.5241 0.169586C15.941 -0.120137 15.2325 0.121299 14.9409 0.708175L10.7523 9.25502L1.38244 10.6256C1.12411 10.6628 0.887928 10.7854 0.7071 10.9711C0.488487 11.1972 0.368022 11.5015 0.372174 11.817C0.376326 12.1325 0.504755 12.4335 0.729242 12.6537L7.50848 19.3062L5.90685 28.6999C5.86929 28.9185 5.89332 29.1432 5.9762 29.3487C6.05908 29.5541 6.19751 29.7321 6.37578 29.8625C6.55405 29.9928 6.76504 30.0702 6.98481 30.086C7.20458 30.1018 7.42435 30.0552 7.61919 29.9517L16.0001 25.5167L24.3809 29.9517C24.6097 30.0743 24.8754 30.1151 25.1301 30.0706C25.7722 29.9591 26.204 29.3462 26.0933 28.6999L24.4916 19.3062L31.2709 12.6537C31.4554 12.4717 31.5772 12.234 31.6141 11.974C31.7137 11.3239 31.2635 10.7222 30.6177 10.6256Z" fill="#D9B77B"/>
</svg>
