<svg width="224" height="31" viewBox="0 0 224 31" fill="none" xmlns="http://www.w3.org/2000/svg">
<path d="M30.2456 10.6256L20.8757 9.25502L16.6871 0.708175C16.5727 0.474167 16.3845 0.284733 16.152 0.169586C15.5689 -0.120137 14.8604 0.121299 14.5688 0.708175L10.3803 9.25502L1.01037 10.6256C0.752043 10.6628 0.515858 10.7854 0.335029 10.9711C0.116417 11.1972 -0.00404801 11.5015 0.000103869 11.817C0.00425575 12.1325 0.132685 12.4335 0.357171 12.6537L7.13641 19.3062L5.53478 28.6999C5.49722 28.9185 5.52125 29.1432 5.60413 29.3487C5.68701 29.5541 5.82544 29.7321 6.00371 29.8625C6.18198 29.9928 6.39297 30.0702 6.61274 30.086C6.83251 30.1018 7.05228 30.0552 7.24712 29.9517L15.628 25.5167L24.0088 29.9517C24.2376 30.0743 24.5034 30.1151 24.758 30.0706C25.4001 29.9591 25.8319 29.3462 25.7212 28.6999L24.1196 19.3062L30.8988 12.6537C31.0833 12.4717 31.2051 12.234 31.242 11.974C31.3416 11.3239 30.8914 10.7222 30.2456 10.6256Z" fill="#D9B77B"/>
<path d="M78.4316 10.6256L69.0617 9.25502L64.8732 0.708175C64.7588 0.474167 64.5705 0.284733 64.3381 0.169586C63.755 -0.120137 63.0464 0.121299 62.7549 0.708175L58.5663 9.25502L49.1964 10.6256C48.9381 10.6628 48.7019 10.7854 48.5211 10.9711C48.3025 11.1972 48.182 11.5015 48.1861 11.817C48.1903 12.1325 48.3187 12.4335 48.5432 12.6537L55.3224 19.3062L53.7208 28.6999C53.6833 28.9185 53.7073 29.1432 53.7902 29.3487C53.873 29.5541 54.0115 29.7321 54.1897 29.8625C54.368 29.9928 54.579 30.0702 54.7988 30.086C55.0185 30.1018 55.2383 30.0552 55.4332 29.9517L63.814 25.5167L72.1949 29.9517C72.4237 30.0743 72.6894 30.1151 72.944 30.0706C73.5862 29.9591 74.0179 29.3462 73.9072 28.6999L72.3056 19.3062L79.0848 12.6537C79.2693 12.4717 79.3911 12.234 79.428 11.974C79.5277 11.3239 79.0774 10.7222 78.4316 10.6256Z" fill="#D9B77B"/>
<path d="M126.618 10.6256L117.248 9.25502L113.059 0.708175C112.945 0.474167 112.757 0.284733 112.524 0.169586C111.941 -0.120137 111.232 0.121299 110.941 0.708175L106.752 9.25502L97.3824 10.6256C97.1241 10.6628 96.8879 10.7854 96.7071 10.9711C96.4885 11.1972 96.368 11.5015 96.3722 11.817C96.3763 12.1325 96.5048 12.4335 96.7292 12.6537L103.508 19.3062L101.907 28.6999C101.869 28.9185 101.893 29.1432 101.976 29.3487C102.059 29.5541 102.198 29.7321 102.376 29.8625C102.554 29.9928 102.765 30.0702 102.985 30.086C103.205 30.1018 103.424 30.0552 103.619 29.9517L112 25.5167L120.381 29.9517C120.61 30.0743 120.875 30.1151 121.13 30.0706C121.772 29.9591 122.204 29.3462 122.093 28.6999L120.492 19.3062L127.271 12.6537C127.455 12.4717 127.577 12.234 127.614 11.974C127.714 11.3239 127.263 10.7222 126.618 10.6256Z" fill="#D9B77B"/>
<path d="M174.804 10.6256L165.434 9.25502L161.245 0.708175C161.131 0.474167 160.943 0.284733 160.71 0.169586C160.127 -0.120137 159.418 0.121299 159.127 0.708175L154.938 9.25502L145.568 10.6256C145.31 10.6628 145.074 10.7854 144.893 10.9711C144.675 11.1972 144.554 11.5015 144.558 11.817C144.562 12.1325 144.691 12.4335 144.915 12.6537L151.695 19.3062L150.093 28.6999C150.055 28.9185 150.079 29.1432 150.162 29.3487C150.245 29.5541 150.384 29.7321 150.562 29.8625C150.74 29.9928 150.951 30.0702 151.171 30.086C151.391 30.1018 151.61 30.0552 151.805 29.9517L160.186 25.5167L168.567 29.9517C168.796 30.0743 169.061 30.1151 169.316 30.0706C169.958 29.9591 170.39 29.3462 170.279 28.6999L168.678 19.3062L175.457 12.6537C175.641 12.4717 175.763 12.234 175.8 11.974C175.9 11.3239 175.45 10.7222 174.804 10.6256Z" fill="#D9B77B"/>
<path d="M222.99 10.6256L213.62 9.25502L209.431 0.708175C209.317 0.474167 209.129 0.284733 208.896 0.169586C208.313 -0.120137 207.605 0.121299 207.313 0.708175L203.124 9.25502L193.755 10.6256C193.496 10.6628 193.26 10.7854 193.079 10.9711C192.861 11.1972 192.74 11.5015 192.744 11.817C192.748 12.1325 192.877 12.4335 193.101 12.6537L199.881 19.3062L198.279 28.6999C198.241 28.9185 198.265 29.1432 198.348 29.3487C198.431 29.5541 198.57 29.7321 198.748 29.8625C198.926 29.9928 199.137 30.0702 199.357 30.086C199.577 30.1018 199.796 30.0552 199.991 29.9517L208.372 25.5167L216.753 29.9517C216.982 30.0743 217.248 30.1151 217.502 30.0706C218.144 29.9591 218.576 29.3462 218.465 28.6999L216.864 19.3062L223.643 12.6537C223.828 12.4717 223.949 12.234 223.986 11.974C224.086 11.3239 223.636 10.7222 222.99 10.6256Z" fill="#D9B77B"/>
</svg>
