<svg width="30" height="30" viewBox="0 0 30 30" fill="none" xmlns="http://www.w3.org/2000/svg">
<rect width="30" height="30" fill="white"/>
<mask id="mask0" mask-type="alpha" maskUnits="userSpaceOnUse" x="0" y="0" width="30" height="30">
<rect width="30" height="30" fill="white"/>
</mask>
<g mask="url(#mask0)">
<path fill-rule="evenodd" clip-rule="evenodd" d="M9.40149 10.2034V15.0021H22.9957V18.2013C22.9957 20.1336 21.618 21.7502 19.7966 22.1213V23H18.197V22.1981H11.7987V23H10.1991V22.1213C8.37777 21.7459 7 20.1336 7 18.2013V15.0021H7.80192V10.1991C7.80192 8.43322 9.23514 7 11.0011 7C11.7817 7 12.494 7.29432 13.0485 7.76353C13.9187 7.42229 14.9808 7.58864 15.6633 8.27113L16.2306 8.83844L12.8395 12.2295L12.2722 11.6665C11.82 11.2143 11.5684 10.6086 11.5684 9.96881C11.5684 9.57211 11.675 9.19675 11.8542 8.85551C11.6068 8.69768 11.3167 8.60384 11.0011 8.60384C10.1181 8.60384 9.40149 9.32045 9.40149 10.2034ZM18.9947 20.6028C20.3212 20.6028 21.3962 19.5236 21.3962 18.2013V16.6017H8.59957V18.2013C8.59957 19.5279 9.67875 20.6028 11.0011 20.6028H18.9947Z" fill="#7C7C7C"/>
</g>
</svg>
