<svg width="50" height="50" viewBox="0 0 50 50" fill="none" xmlns="http://www.w3.org/2000/svg">
<circle cx="25" cy="25" r="25" fill="#D9B77B"/>
<path d="M25.0018 20.839C22.7316 20.839 20.9005 22.643 20.9005 24.8794C20.9005 27.1158 22.7316 28.9197 25.0018 28.9197C27.2719 28.9197 29.1031 27.1158 29.1031 24.8794C29.1031 22.643 27.2719 20.839 25.0018 20.839ZM25.0018 27.5062C23.5347 27.5062 22.3354 26.3282 22.3354 24.8794C22.3354 23.4306 23.5312 22.2526 25.0018 22.2526C26.4724 22.2526 27.6682 23.4306 27.6682 24.8794C27.6682 26.3282 26.4688 27.5062 25.0018 27.5062ZM30.2274 20.6738C30.2274 21.1977 29.7991 21.6162 29.2708 21.6162C28.739 21.6162 28.3142 21.1942 28.3142 20.6738C28.3142 20.1533 28.7426 19.7314 29.2708 19.7314C29.7991 19.7314 30.2274 20.1533 30.2274 20.6738ZM32.9438 21.6302C32.8831 20.3678 32.5904 19.2496 31.6516 18.3283C30.7165 17.407 29.5814 17.1187 28.2999 17.0554C26.9793 16.9815 23.0207 16.9815 21.7001 17.0554C20.4222 17.1152 19.2871 17.4035 18.3484 18.3248C17.4096 19.2461 17.1205 20.3643 17.0562 21.6267C16.9813 22.9278 16.9813 26.8275 17.0562 28.1286C17.1169 29.3909 17.4096 30.5092 18.3484 31.4305C19.2871 32.3518 20.4186 32.6401 21.7001 32.7034C23.0207 32.7773 26.9793 32.7773 28.2999 32.7034C29.5814 32.6436 30.7165 32.3553 31.6516 31.4305C32.5868 30.5092 32.8795 29.3909 32.9438 28.1286C33.0187 26.8275 33.0187 22.9313 32.9438 21.6302ZM31.2376 29.5246C30.9592 30.2138 30.4202 30.7448 29.717 31.0226C28.664 31.434 26.1654 31.339 25.0018 31.339C23.8381 31.339 21.336 31.4305 20.2866 31.0226C19.5869 30.7483 19.048 30.2173 18.766 29.5246C18.3484 28.4872 18.4447 26.0257 18.4447 24.8794C18.4447 23.733 18.3519 21.268 18.766 20.2342C19.0444 19.545 19.5834 19.014 20.2866 18.7362C21.3395 18.3248 23.8381 18.4198 25.0018 18.4198C26.1654 18.4198 28.6676 18.3283 29.717 18.7362C30.4166 19.0105 30.9556 19.5415 31.2376 20.2342C31.6552 21.2716 31.5588 23.733 31.5588 24.8794C31.5588 26.0257 31.6552 28.4907 31.2376 29.5246Z" fill="white"/>
</svg>
