<svg width="50" height="50" viewBox="0 0 50 50" fill="none" xmlns="http://www.w3.org/2000/svg">
<circle cx="25" cy="25" r="25" fill="#D9B77B"/>
<path fill-rule="evenodd" clip-rule="evenodd" d="M24.9096 22.5891L24.8699 21.9472C24.7511 20.2838 25.7939 18.7644 27.4438 18.175C28.051 17.9654 29.0805 17.9392 29.7537 18.1226C30.0177 18.2012 30.5193 18.4632 30.8756 18.6989L31.5224 19.1312L32.2352 18.9085C32.6312 18.7906 33.1592 18.5941 33.3967 18.4632C33.6211 18.3453 33.8191 18.2798 33.8191 18.3191C33.8191 18.5417 33.3307 19.3014 32.9216 19.7205C32.3672 20.31 32.5256 20.3624 33.6475 19.9694C34.3207 19.7467 34.3338 19.7467 34.2019 19.9956C34.1226 20.1266 33.7135 20.585 33.2779 21.0041C32.5387 21.7246 32.4992 21.8032 32.4992 22.4057C32.4992 23.3356 32.0504 25.2741 31.6016 26.3351C30.77 28.326 28.9881 30.3823 27.2062 31.4171C24.6984 32.871 21.3589 33.2377 18.5475 32.3863C17.6103 32.0982 16 31.3647 16 31.2337C16 31.1944 16.4883 31.142 17.0824 31.1289C18.3231 31.1027 19.5638 30.7622 20.6197 30.1597L21.3326 29.7406L20.5142 29.4655C19.3526 29.0725 18.3099 28.1688 18.0459 27.3174C17.9667 27.0424 17.9931 27.0292 18.7323 27.0292L19.4978 27.0162L18.8511 26.7149C18.0855 26.3351 17.3859 25.6932 17.0427 25.0383C16.7919 24.5668 16.4752 23.3749 16.5676 23.2832C16.5939 23.244 16.8712 23.3225 17.188 23.4273C18.0987 23.7547 18.2175 23.6761 17.6895 23.126C16.6995 22.1306 16.396 20.6505 16.8712 19.249L17.0956 18.6203L17.9667 19.4717C19.7486 21.1875 21.8473 22.2092 24.2496 22.5105L24.9096 22.5891Z" fill="white"/>
</svg>
