<svg width="15" height="16" viewBox="0 0 15 16" fill="none" xmlns="http://www.w3.org/2000/svg">
<path d="M3.20001 7.19995H4.80001V8.79995H3.20001V7.19995ZM3.20001 10.4H4.80001V12H3.20001V10.4ZM6.40001 7.19995H8.00001V8.79995H6.40001V7.19995ZM6.40001 10.4H8.00001V12H6.40001V10.4ZM9.60001 7.19995H11.2V8.79995H9.60001V7.19995ZM9.60001 10.4H11.2V12H9.60001V10.4Z" fill="#6D5C3E"/>
<path d="M1.6 16H12.8C13.6824 16 14.4 15.2824 14.4 14.4V3.2C14.4 2.3176 13.6824 1.6 12.8 1.6H11.2V0H9.6V1.6H4.8V0H3.2V1.6H1.6C0.7176 1.6 0 2.3176 0 3.2V14.4C0 15.2824 0.7176 16 1.6 16ZM12.8 4.8L12.8008 14.4H1.6V4.8H12.8Z" fill="#6D5C3E"/>
</svg>
