<svg width="21" height="22" viewBox="0 0 21 22" fill="none" xmlns="http://www.w3.org/2000/svg">
<path d="M20.084 3.48381L17.2883 0.55818C16.9471 0.200725 16.4903 0 16.0073 0C15.5243 0 15.0676 0.197975 14.7263 0.55818L11.7154 3.70654C11.3742 4.06399 11.1825 4.54518 11.1825 5.05112C11.1825 5.55981 11.3715 6.0355 11.7154 6.3957L14.0674 8.86214C13.5316 10.1698 12.7618 11.358 11.7994 12.3625C10.836 13.3771 9.70992 14.1772 8.46041 14.7437L6.1084 12.2772C5.76715 11.9198 5.3104 11.719 4.8274 11.719C4.58916 11.7181 4.35314 11.767 4.13317 11.8629C3.91321 11.9587 3.71372 12.0996 3.54639 12.2772L0.532877 15.4256C0.191626 15.783 0 16.2642 0 16.7702C0 17.2788 0.189001 17.7545 0.532877 18.1147L3.32589 21.0404C3.90864 21.6508 4.7119 22 5.53615 22C5.70677 22 5.87215 21.9863 6.04015 21.956C9.51567 21.3566 12.9649 19.4181 15.7501 16.5034C18.5326 13.5833 20.3806 9.97025 20.9581 6.32696C21.1235 5.29309 20.7927 4.22897 20.084 3.48381ZM19.097 5.99975C18.5851 9.2416 16.9208 12.4752 14.4139 15.1011C11.9071 17.727 8.82266 19.4703 5.72778 20.0065C5.33927 20.0752 4.94027 19.9378 4.65677 19.6435L1.91363 16.7702L4.82215 13.7208L7.96691 17.0204L7.99053 17.0451L8.55754 16.8251C10.2767 16.163 11.8379 15.1173 13.1329 13.7603C14.4279 12.4034 15.4257 10.7677 16.0572 8.96663L16.2672 8.3727L13.0962 5.05387L16.0047 2.0045L18.7478 4.87789C19.0313 5.17485 19.1626 5.5928 19.097 5.99975Z" fill="#D9B77B"/>
</svg>
